<svg xmlns="http://www.w3.org/2000/svg" viewBox="0 0 32 32" width="32" height="32">
  <!-- 圓角暖沙色背景 -->
  <rect width="32" height="32" rx="7" fill="#F4A261"/>
  <!-- 貓耳朵 -->
  <path d="M6 14 L12 4 L16 11 Z" fill="#E76F51"/>
  <path d="M26 14 L20 4 L16 11 Z" fill="#E76F51"/>
  <!-- 內耳 -->
  <path d="M8 12 L12 6 L14 10 Z" fill="#FDF0ED"/>
  <path d="M24 12 L20 6 L18 10 Z" fill="#FDF0ED"/>
  <!-- 貓臉主體 -->
  <ellipse cx="16" cy="18" rx="11" ry="9" fill="#E76F51"/>
  <!-- 貓眼睛 -->
  <circle cx="12" cy="17" r="1.5" fill="#3D3A37"/>
  <circle cx="20" cy="17" r="1.5" fill="#3D3A37"/>
  <!-- 貓鼻子與嘴巴 -->
  <path d="M15 19.5 L17 19.5 L16 20.5 Z" fill="#3D3A37"/>
  <path d="M14 21.5 Q16 23.5 18 21.5" stroke="#3D3A37" stroke-width="1.2" fill="none" stroke-linecap="round"/>
  <!-- 貓鬍鬚 -->
  <line x1="3" y1="18" x2="9" y2="19" stroke="#3D3A37" stroke-width="1" opacity="0.7"/>
  <line x1="3" y1="20.5" x2="9" y2="20.5" stroke="#3D3A37" stroke-width="1" opacity="0.7"/>
  <line x1="29" y1="18" x2="23" y2="19" stroke="#3D3A37" stroke-width="1" opacity="0.7"/>
  <line x1="29" y1="20.5" x2="23" y2="20.5" stroke="#3D3A37" stroke-width="1" opacity="0.7"/>
</svg>
